<?xml version="1.0" standalone="no"?>
<!DOCTYPE svg PUBLIC "-//W3C//DTD SVG 20010904//EN"
 "http://www.w3.org/TR/2001/REC-SVG-20010904/DTD/svg10.dtd">
<svg version="1.0" xmlns="http://www.w3.org/2000/svg"
 width="1280.000000pt" height="1003.000000pt" viewBox="0 0 1280.000000 1003.000000"
 preserveAspectRatio="xMidYMid meet">
<metadata>
Created by potrace 1.15, written by Peter Selinger 2001-2017
</metadata>
<g transform="translate(0.000000,1003.000000) scale(0.100000,-0.100000)"
fill="#000000" stroke="none">
<path d="M9388 9763 c7 -3 16 -2 19 1 4 3 -2 6 -13 5 -11 0 -14 -3 -6 -6z"/>
<path d="M9215 9730 c10 -11 20 -20 23 -20 3 0 -3 9 -13 20 -10 11 -20 20 -23
20 -3 0 3 -9 13 -20z"/>
<path d="M9378 9713 c-101 -109 -111 -168 -43 -243 13 -14 25 -34 27 -45 4
-25 43 -32 52 -9 4 10 -1 25 -10 35 -14 16 -15 23 -5 45 16 35 6 59 -30 74
-39 17 -48 32 -9 17 43 -16 58 3 66 86 8 77 -4 87 -48 40z"/>
<path d="M9110 9680 c0 -28 48 -120 66 -127 8 -3 25 3 37 13 12 11 7 2 -11
-19 l-33 -38 21 -34 c13 -21 17 -36 10 -40 -15 -9 -12 -41 5 -55 21 -17 48 6
42 36 -2 13 4 36 14 51 12 17 19 46 19 74 0 38 -5 50 -32 76 -85 78 -138 103
-138 63z"/>
<path d="M9275 9621 c-3 -5 -1 -12 5 -16 5 -3 10 1 10 9 0 18 -6 21 -15 7z"/>
<path d="M10054 8924 c22 -8 48 -22 59 -32 44 -40 86 -159 87 -247 l1 -50 18
52 c20 55 65 125 103 160 33 31 94 54 126 48 26 -5 26 -5 3 5 -57 25 -148 -36
-209 -141 l-29 -50 -12 58 c-28 123 -100 215 -168 212 -10 0 0 -7 21 -15z"/>
<path d="M9990 8876 c-9 -11 -11 -46 -8 -121 3 -92 6 -108 26 -127 20 -20 26
-21 64 -11 24 6 45 10 47 7 5 -4 -9 -9 -67 -24 -61 -16 -79 -47 -65 -113 10
-45 9 -54 -5 -64 -36 -26 -42 -35 -42 -57 0 -25 28 -56 52 -56 22 0 48 33 48
62 0 19 9 32 33 46 69 43 117 121 117 190 0 51 -136 273 -171 280 -9 2 -22 -4
-29 -12z"/>
<path d="M10395 8724 c-109 -56 -172 -103 -191 -143 -24 -49 -23 -125 3 -183
18 -39 20 -54 12 -83 -13 -47 2 -75 41 -75 38 0 70 43 52 69 -25 33 -23 42 12
81 50 56 45 101 -16 150 -16 12 -28 27 -28 33 0 6 15 -3 33 -21 58 -56 82 -43
166 97 35 57 42 77 34 90 -17 27 -44 23 -118 -15z"/>
<path d="M7530 8390 c0 -11 4 -20 9 -20 5 0 7 9 4 20 -3 11 -7 20 -9 20 -2 0
-4 -9 -4 -20z"/>
<path d="M7531 8345 c0 -12 -5 -26 -11 -33 -5 -7 -3 -6 6 2 9 7 14 22 11 32
-4 17 -5 17 -6 -1z"/>
<path d="M7761 8334 c0 -11 3 -14 6 -6 3 7 2 16 -1 19 -3 4 -6 -2 -5 -13z"/>
<path d="M7474 8284 c-18 -14 -18 -15 4 -4 12 6 22 13 22 15 0 8 -5 6 -26 -11z"/>
<path d="M7663 8268 c-21 -10 -23 -18 -23 -81 0 -54 -4 -73 -17 -84 -16 -13
-16 -13 5 -3 16 8 28 8 45 -1 l22 -12 -21 24 c-30 33 -29 131 1 153 23 18 19
19 -12 4z"/>
<path d="M7417 8239 c4 -13 8 -18 11 -10 2 7 -1 18 -6 23 -8 8 -9 4 -5 -13z"/>
<path d="M7868 8188 c2 -58 0 -73 -15 -85 -16 -13 -16 -13 5 -3 19 9 29 7 57
-10 19 -12 35 -19 35 -17 0 3 -15 15 -34 27 -33 20 -34 23 -35 82 0 33 -4 65
-8 69 -4 4 -7 -24 -5 -63z"/>
<path d="M7191 8234 c0 -11 3 -14 6 -6 3 7 2 16 -1 19 -3 4 -6 -2 -5 -13z"/>
<path d="M7416 8167 c1 -23 2 -44 3 -47 1 -3 11 -11 24 -19 21 -13 22 -13 5 6
-10 11 -18 33 -18 49 0 16 -4 35 -8 41 -5 7 -7 -6 -6 -30z"/>
<path d="M3919 8184 c-10 -13 -14 -47 -14 -131 l0 -113 -44 2 c-26 2 -46 -2
-48 -8 -4 -13 47 -34 81 -34 17 0 26 -13 44 -59 28 -72 88 -166 154 -243 49
-57 57 -89 18 -68 -16 9 -51 9 -122 1 -15 -2 -8 -36 13 -66 54 -80 83 -151 89
-218 4 -57 3 -66 -10 -61 -8 3 -55 21 -105 39 -49 19 -130 50 -178 70 -148 61
-160 43 -101 -161 5 -18 -1 -23 -40 -34 -27 -7 -56 -24 -69 -40 -15 -17 -38
-30 -63 -34 -21 -4 -58 -19 -82 -33 -41 -23 -45 -24 -62 -8 -16 14 -19 14 -33
0 -19 -18 -47 -20 -47 -2 0 18 -73 47 -119 47 -51 0 -89 -15 -123 -47 -52 -50
-78 -186 -45 -236 l15 -24 -49 5 c-47 4 -51 3 -87 -35 -43 -45 -72 -122 -72
-190 0 -98 54 -238 131 -339 39 -50 39 -53 28 -95 -15 -56 0 -116 41 -163 27
-31 29 -35 13 -47 -11 -10 -48 -14 -117 -15 -118 -2 -202 -25 -286 -78 -30
-20 -61 -36 -68 -36 -7 0 -42 13 -78 30 -272 123 -472 380 -536 689 -26 126
-21 335 11 456 51 194 170 375 315 482 186 137 337 57 268 -144 -51 -145 -195
-239 -261 -169 -31 33 -23 58 27 81 23 11 42 25 42 32 0 21 -44 15 -81 -10
-28 -19 -35 -30 -37 -64 -2 -32 2 -47 22 -69 22 -26 31 -29 84 -29 51 0 67 5
103 30 82 58 152 191 153 290 2 106 -49 157 -155 156 -94 0 -154 -34 -269
-150 -113 -114 -178 -218 -226 -358 -46 -134 -58 -223 -51 -378 11 -270 104
-490 281 -669 78 -79 207 -168 304 -211 l63 -28 -25 -26 c-111 -118 -159 -326
-112 -485 9 -32 15 -60 13 -62 -11 -12 -296 -34 -437 -34 -417 0 -835 83
-1138 226 -521 244 -776 715 -591 1088 87 175 268 330 467 399 119 41 188 42
261 2 30 -17 63 -43 73 -60 22 -36 22 -36 3 -61 -15 -18 -17 -18 -54 24 -40
44 -61 53 -61 27 0 -22 79 -105 100 -105 29 0 60 43 60 85 0 32 -7 45 -44 80
-105 101 -264 99 -466 -6 -265 -137 -439 -389 -440 -637 0 -201 114 -437 298
-614 273 -263 724 -434 1262 -479 168 -14 454 -6 605 16 55 8 105 15 112 15 6
0 22 -19 36 -42 14 -24 46 -65 73 -93 26 -27 49 -59 51 -70 2 -16 -1 -15 -18
8 -24 32 -109 96 -152 115 -15 7 -53 12 -84 12 -101 0 -173 -54 -173 -129 0
-21 -7 -35 -21 -43 -24 -15 -59 -78 -59 -107 0 -14 -5 -18 -21 -14 l-20 6 20
-39 c12 -21 21 -46 21 -54 0 -8 14 -39 30 -69 l29 -53 -32 26 c-18 14 -45 33
-62 42 -16 9 -61 39 -98 67 -37 27 -70 47 -73 44 -9 -9 16 -48 63 -98 l44 -47
-18 -67 c-16 -60 -21 -68 -53 -82 -40 -17 -35 -21 55 -42 51 -12 155 -60 155
-72 0 -3 -30 -9 -67 -12 -74 -6 -159 -31 -183 -53 -12 -12 -11 -14 8 -14 13 0
66 5 119 12 86 10 96 10 105 -5 5 -10 25 -24 45 -32 l35 -15 -26 -31 c-46 -54
-31 -66 24 -19 19 17 41 30 50 30 8 0 -1 -11 -21 -23 -20 -12 -44 -29 -53 -37
-17 -13 -17 -14 0 -20 13 -5 -9 -17 -72 -39 -123 -44 -120 -41 -106 -89 25
-82 16 -92 -73 -92 -92 0 -92 -3 -12 -92 39 -43 73 -83 75 -87 1 -4 -13 -24
-33 -45 -34 -36 -54 -81 -42 -93 4 -3 41 -9 84 -14 117 -13 156 -23 191 -49
18 -13 32 -27 32 -30 0 -10 -126 -66 -200 -88 -296 -90 -680 -23 -850 148 -92
91 -170 271 -170 387 0 70 12 96 29 64 15 -26 26 -26 59 0 44 34 62 70 62 122
0 73 -33 72 -113 -2 -98 -90 -94 -258 10 -466 145 -288 608 -414 1029 -279 18
5 18 5 -1 -11 -11 -9 -45 -30 -76 -46 -31 -17 -69 -44 -84 -59 -26 -28 -27
-30 -12 -53 9 -15 40 -33 79 -47 87 -32 92 -37 74 -87 -16 -46 -12 -78 15
-108 34 -38 79 -153 85 -218 4 -37 14 -73 25 -90 16 -21 17 -31 9 -47 -6 -11
-8 -25 -5 -30 3 -5 1 -11 -5 -15 -15 -10 -12 -35 5 -35 18 0 19 -12 3 -28 -9
-9 -7 -13 5 -18 27 -10 35 4 31 55 -2 32 2 55 11 67 12 15 14 15 9 3 -3 -10
-1 -20 5 -24 6 -3 8 -17 5 -31 -4 -16 -2 -24 7 -24 10 0 10 -3 1 -12 -20 -20
-14 -40 11 -36 14 2 22 10 22 23 0 11 4 26 8 33 5 8 3 19 -5 29 -7 9 -12 24
-10 35 2 12 -5 21 -20 27 -17 7 -19 10 -8 13 8 3 31 11 50 17 19 7 42 15 50
17 9 3 32 -6 51 -19 20 -14 52 -30 71 -36 19 -6 74 -34 123 -62 107 -61 144
-70 174 -40 22 22 23 31 27 191 1 41 5 93 9 116 6 36 11 42 50 56 l43 16 12
-26 c11 -24 22 -113 21 -169 -1 -12 6 -26 14 -31 9 -4 17 -27 20 -51 2 -23 9
-49 16 -57 9 -11 7 -19 -13 -37 -48 -45 -62 -184 -24 -242 10 -14 42 -42 72
-61 55 -35 56 -36 117 -25 130 22 211 24 293 8 98 -20 173 -24 182 -10 4 5 26
13 50 17 34 5 42 3 42 -9 0 -8 9 -15 20 -15 11 0 20 7 20 15 0 9 9 15 25 15
16 0 25 -6 25 -15 0 -20 27 -30 44 -16 21 18 26 1 5 -20 -10 -10 -21 -19 -24
-19 -18 0 -253 -100 -353 -149 -339 -168 -573 -308 -609 -364 -13 -21 -35 -42
-49 -47 -21 -8 -25 -15 -20 -38 4 -19 -7 -50 -38 -111 -24 -47 -46 -79 -50
-73 -4 6 -1 21 6 32 11 17 11 22 -2 31 -11 8 -12 12 -2 16 6 2 12 13 12 24 0
14 -7 19 -25 19 -20 0 -25 -5 -25 -25 0 -14 5 -25 12 -25 6 0 3 -6 -8 -14 -15
-11 -16 -17 -7 -27 13 -13 0 -44 -27 -66 -13 -10 -13 -12 3 -19 13 -4 23 0 33
15 8 11 20 21 26 21 7 0 6 -6 -2 -15 -19 -23 3 -18 41 11 45 34 113 69 104 53
-6 -9 2 -11 33 -7 25 4 89 34 166 78 68 40 129 69 135 65 6 -3 11 0 11 8 0 17
439 238 532 268 69 22 102 20 92 -5 -8 -20 26 -29 116 -30 49 -1 89 -8 115
-20 l40 -19 -40 -12 c-32 -10 -58 -9 -137 3 -92 14 -162 10 -142 -7 5 -4 62
-20 127 -35 125 -29 145 -45 86 -70 -22 -9 -75 -12 -192 -9 -149 3 -160 2
-142 -12 11 -9 45 -23 75 -31 79 -21 81 -23 102 -92 l19 -63 -21 -29 c-25 -35
-19 -36 63 -11 67 21 188 37 172 23 -6 -4 -27 -21 -48 -36 -36 -27 -127 -133
-127 -148 0 -17 20 -5 104 62 70 57 91 69 102 59 8 -7 27 -9 49 -5 l35 7 0
-44 c0 -44 18 -66 41 -51 20 12 6 -11 -51 -86 -33 -43 -60 -83 -60 -88 0 -5
18 -23 40 -41 31 -25 40 -39 40 -63 0 -16 10 -48 22 -69 29 -52 85 -74 169
-66 69 8 86 16 139 63 21 19 62 48 90 63 l52 29 90 -91 c49 -49 100 -104 114
-122 13 -17 40 -40 59 -51 34 -18 35 -18 62 2 26 20 83 138 83 173 0 9 7 27
15 41 8 14 21 40 30 57 10 22 23 33 38 34 12 0 34 2 50 4 22 3 27 0 27 -19 0
-27 52 -78 137 -135 67 -45 78 -63 68 -119 -9 -52 15 -101 71 -147 60 -49 118
-57 189 -26 52 23 96 27 126 10 29 -15 127 8 161 39 14 13 31 44 38 69 19 77
49 125 133 211 l80 82 -6 61 c-4 44 -2 58 6 51 20 -15 100 -41 141 -47 93 -11
504 -158 529 -188 38 -47 78 -143 87 -212 7 -56 14 -74 34 -92 22 -19 31 -20
63 -12 21 5 54 17 74 25 32 14 41 14 63 3 14 -8 96 -50 182 -93 133 -68 160
-78 182 -70 42 15 53 48 52 159 -1 55 2 123 6 151 6 49 8 51 50 67 42 15 43
15 49 -4 8 -23 73 -54 156 -73 94 -22 128 -48 129 -98 0 -39 58 -100 109 -115
82 -26 140 -13 191 42 38 40 75 57 114 50 20 -4 36 -2 41 4 3 6 24 20 46 32
51 26 74 74 65 139 -9 69 6 130 42 169 18 18 30 37 27 41 -3 5 33 21 81 36
174 56 341 186 442 347 32 51 33 51 47 -22 9 -43 42 -118 69 -155 51 -68 187
-101 245 -58 33 24 62 83 68 136 l5 43 27 -25 c34 -32 40 -9 12 47 -24 46 -27
93 -8 110 11 8 20 -6 45 -72 32 -82 57 -125 67 -115 3 2 -4 46 -16 96 -18 78
-20 96 -9 122 l13 31 23 -22 c13 -13 24 -27 24 -33 1 -6 29 -69 65 -141 53
-109 64 -126 70 -105 3 14 0 57 -8 97 l-14 72 51 49 c46 45 54 49 86 45 l35
-6 -72 77 c-40 42 -73 81 -73 88 0 6 -7 20 -17 30 -9 10 -11 18 -5 18 6 0 12
-5 14 -12 2 -6 24 -17 49 -23 147 -41 172 -46 186 -40 14 5 14 7 -3 19 -10 7
-30 17 -44 21 -14 4 -53 21 -87 38 -48 22 -63 35 -63 51 0 11 -7 30 -15 40
-21 28 -19 34 20 53 25 12 35 23 35 40 0 24 4 24 88 7 25 -5 30 -32 7 -40 -8
-4 -15 -14 -15 -24 0 -12 -9 -20 -22 -22 -27 -4 -31 -31 -5 -36 12 -2 20 3 23
15 3 10 15 23 27 29 12 5 21 15 19 22 -1 7 5 12 13 12 9 0 18 7 21 15 4 8 15
15 25 15 12 0 21 10 25 27 4 16 13 36 22 45 8 10 12 24 9 31 -4 11 0 13 14 10
11 -3 21 1 25 11 3 9 12 16 19 16 18 0 38 27 30 40 -4 7 -7 40 -7 75 0 79 19
110 75 119 36 7 38 6 28 -13 -6 -11 -16 -23 -21 -26 -20 -12 -11 -36 13 -33
14 2 21 9 21 21 -1 11 5 17 18 17 14 0 19 6 17 23 -2 12 3 32 9 45 7 12 9 22
5 22 -4 0 0 5 10 11 25 15 41 1 21 -19 -15 -15 -15 -17 5 -33 13 -10 17 -20
11 -24 -17 -11 -11 -35 9 -35 20 0 36 26 22 35 -13 8 -6 59 12 85 l16 22 10
-38 c5 -22 13 -56 16 -76 7 -36 6 -37 -21 -35 -21 1 -29 -3 -32 -17 -3 -16 0
-18 26 -13 26 5 31 3 37 -20 6 -24 0 -107 -10 -159 -3 -12 -14 -24 -25 -27
-11 -3 -20 -12 -20 -20 0 -9 -9 -19 -20 -22 -22 -7 -26 -20 -10 -30 8 -5 7
-11 -1 -21 -15 -19 2 -39 25 -31 18 7 22 37 6 37 -6 0 -5 8 2 19 7 11 16 17
21 14 10 -6 11 -1 -37 -187 -51 -196 -63 -296 -48 -393 28 -178 168 -375 317
-449 70 -34 184 -44 274 -24 80 18 206 73 206 90 0 20 -33 17 -120 -10 -51
-16 -98 -22 -170 -23 -95 -1 -104 1 -169 34 -44 21 -94 58 -136 99 -55 55 -71
78 -98 147 -47 120 -55 172 -49 303 4 97 11 132 42 225 21 61 44 118 53 127
11 13 12 21 4 31 -8 10 -4 16 19 26 16 7 29 18 29 25 0 18 -21 35 -36 29 -11
-4 -14 18 -14 121 0 105 2 126 15 126 8 0 15 9 15 20 0 11 -4 20 -9 20 -5 0
-11 13 -13 30 -3 17 -4 30 -3 30 1 0 17 -5 34 -11 25 -9 38 -9 56 1 16 9 32 9
52 3 25 -9 29 -15 35 -69 7 -57 4 -209 -8 -341 -5 -56 -8 -63 -27 -63 -17 0
-19 2 -8 9 21 14 6 42 -21 37 -30 -4 -35 -32 -9 -48 12 -7 21 -21 21 -30 0
-10 6 -18 14 -18 11 0 12 -10 0 -62 -17 -84 -22 -95 -45 -101 -20 -5 -26 -31
-10 -41 5 -4 -2 -35 -17 -71 -22 -57 -24 -67 -11 -79 21 -20 69 -29 73 -14 2
7 12 41 22 75 10 34 22 59 27 56 5 -3 4 -10 -2 -16 -15 -15 -14 -47 3 -53 8
-3 12 -13 9 -25 -6 -21 12 -25 37 -9 13 9 13 12 -3 24 -10 8 -14 17 -9 20 6 3
10 22 9 41 -1 26 5 40 21 51 12 8 20 20 17 25 -10 15 -45 10 -45 -6 0 -8 -9
-19 -20 -25 -19 -10 -20 -9 -14 17 4 15 11 37 17 48 6 11 12 30 13 42 1 11 9
59 18 105 8 45 18 167 22 269 l7 187 72 -44 c40 -24 78 -44 86 -44 7 0 25 12
40 26 15 15 38 32 51 38 16 8 22 20 20 35 -1 13 2 29 7 35 5 6 16 30 24 53
l14 41 -102 76 c-133 99 -132 98 -112 142 32 65 179 224 208 224 23 0 6 21
-21 26 -16 4 -30 11 -30 17 0 36 174 336 252 433 77 96 92 120 84 139 -10 27
98 91 138 81 36 -9 137 -80 196 -138 30 -29 51 -46 46 -38 -4 8 35 -30 88 -85
53 -55 101 -106 108 -113 81 -82 183 -139 263 -146 28 -3 63 -9 78 -15 15 -6
27 -9 27 -6 0 10 -98 166 -153 243 -65 91 -113 136 -215 205 -83 56 -152 91
-230 118 -51 18 -73 19 -212 14 -174 -7 -278 -32 -362 -85 -26 -16 -86 -74
-134 -128 -64 -72 -91 -96 -99 -89 -9 8 -5 20 13 47 19 27 23 44 19 77 l-4 43
108 107 c60 59 109 111 109 116 0 4 11 23 25 41 31 41 50 132 36 181 -16 59
-76 122 -153 159 l-69 33 58 17 c32 10 72 22 89 27 17 5 44 24 61 42 30 31 36
49 60 178 3 15 -2 40 -11 57 -23 44 -20 91 9 156 56 126 54 210 -6 277 -16 18
-29 36 -29 39 0 19 -57 60 -109 80 -52 19 -64 20 -94 9 -27 -10 -42 -9 -78 2
-39 13 -51 24 -111 113 -91 134 -142 186 -185 186 -31 0 -33 2 -33 33 0 33 24
67 48 67 7 0 12 15 12 35 0 23 5 35 13 35 8 0 22 9 32 20 16 17 70 39 134 53
18 4 25 1 29 -16 5 -20 6 -20 12 -1 4 10 2 23 -4 27 -7 6 -4 7 7 3 11 -4 37 5
63 20 26 16 51 23 61 19 10 -3 15 -3 11 0 -3 3 7 19 23 35 59 58 30 129 -95
236 -39 33 -71 65 -71 71 0 6 -4 15 -9 20 -5 5 -6 3 -2 -4 17 -30 -12 -9 -51
36 -40 46 -43 54 -43 109 0 45 -4 61 -16 66 -10 4 -13 2 -7 -7 11 -18 15 -49
8 -75 l-6 -23 -37 28 c-56 41 -79 73 -74 100 5 28 3 28 55 3 23 -11 34 -15 23
-8 -51 35 -55 42 -57 104 -1 33 1 66 5 72 4 8 2 10 -8 6 -8 -3 -17 2 -20 13
-6 19 -58 53 -82 53 -12 0 -14 14 -12 69 2 38 1 68 -1 65 -2 -2 -11 2 -20 9
-14 10 -14 10 -3 -5 8 -10 12 -39 10 -80 l-3 -63 -50 -12 c-27 -6 -68 -11 -90
-12 l-40 0 34 14 c18 8 46 15 61 15 l29 0 3 86 c3 92 2 97 -24 107 -34 12 8
152 57 184 25 17 35 19 46 10 11 -10 11 -9 1 4 -6 8 -11 44 -11 78 1 35 -3 67
-7 71 -5 5 -8 -23 -7 -63 2 -64 0 -74 -20 -89 -12 -10 -24 -18 -27 -18 -3 0
-5 45 -6 99 0 67 3 98 10 95 6 -3 4 0 -5 8 -19 16 -49 101 -49 142 0 25 -2 28
-11 16 -8 -12 -12 -12 -16 -2 -3 8 -27 40 -54 72 -26 32 -45 61 -41 65 4 5 2
5 -5 1 -6 -3 -32 7 -57 24 -77 52 -185 89 -261 90 -37 1 -43 5 -75 52 -70 104
-142 124 -222 64 -24 -19 -51 -45 -60 -57 l-15 -24 -7 33 c-12 53 -36 34 -36
-29 0 -16 -4 -29 -9 -29 -4 0 -6 -11 -4 -24 3 -13 -8 -53 -25 -91 -25 -57 -30
-63 -35 -43 -12 41 -7 92 13 163 20 71 27 155 12 155 -5 0 -18 -33 -31 -73
-26 -84 -27 -87 -65 -111 -23 -15 -30 -16 -37 -5 -5 8 -7 23 -4 34 3 11 10 58
15 105 6 47 14 103 20 125 22 90 0 89 -41 -2 -17 -38 -34 -75 -38 -83 -5 -8
-38 -21 -76 -28 -68 -14 -69 -13 -86 9 -27 36 -33 17 -15 -53 9 -36 16 -76 16
-91 l0 -28 -32 16 -33 16 25 -20 c18 -14 22 -23 14 -31 -8 -8 -18 0 -37 29
-41 62 -121 137 -125 117 -2 -9 6 -29 17 -45 11 -15 18 -31 14 -35 -3 -3 -2
-6 4 -6 10 0 63 -72 63 -85 0 -3 -17 12 -38 35 -36 37 -43 40 -94 40 -83 0
-167 19 -232 51 -42 22 -67 28 -86 24 -22 -5 -29 -2 -33 12 -3 10 -5 5 -6 -13
-2 -45 -31 -68 -78 -59 -20 4 -50 18 -66 31 -16 13 -37 24 -47 24 -14 0 -19 9
-22 45 -2 25 1 51 7 57 7 7 6 9 -2 4 -6 -3 -36 8 -67 26 l-56 32 1 66 c1 36 5
70 9 75 5 6 -1 10 -15 10 -14 0 -20 -4 -16 -10 4 -5 8 -38 9 -72 1 -67 -3 -73
-69 -110 l-36 -21 -48 28 -48 28 -47 -28 c-43 -26 -48 -26 -76 -13 l-29 15 26
-24 c24 -21 27 -29 25 -90 0 -36 1 -65 3 -62 2 2 20 -6 40 -17 l36 -21 -25 21
c-14 11 -28 21 -32 21 -5 0 -8 32 -8 70 l0 70 45 22 c44 22 44 22 80 2 47 -24
48 -26 51 -96 l2 -60 -45 -28 c-25 -16 -50 -27 -56 -23 -6 3 -7 1 -3 -5 8 -13
28 -5 78 30 26 18 29 18 55 2 28 -16 28 -16 6 2 -19 16 -22 29 -22 84 l1 65
50 32 49 32 53 -30 c39 -22 55 -37 59 -57 8 -41 -2 -76 -26 -88 -52 -26 -92
-50 -98 -58 -4 -5 -15 -6 -25 -2 -17 6 -17 5 0 -9 19 -15 20 -16 2 -65 -10
-28 -16 -59 -13 -69 4 -15 -6 -19 -65 -29 -47 -7 -80 -19 -103 -36 -38 -29
-50 -33 -42 -12 6 16 -13 26 -48 26 -26 0 -55 33 -55 62 0 9 -10 23 -22 29
-13 7 -26 17 -30 23 -5 8 -8 7 -8 -1 0 -7 -12 -13 -27 -13 -16 0 -35 -5 -43
-10 -11 -7 -24 -1 -50 24 -19 19 -45 37 -58 41 -19 5 -21 9 -11 21 10 12 9 13
-5 8 -13 -5 -16 2 -16 45 0 29 -7 83 -16 122 -16 71 -28 82 -63 60 -11 -7 -22
-3 -37 12 -13 12 -40 39 -62 61 l-39 38 -21 -23 c-12 -12 -29 -42 -38 -66 -12
-29 -20 -40 -28 -34 -25 21 -189 40 -200 23 -3 -5 6 -39 20 -76 14 -38 23 -70
21 -72 -2 -2 -30 5 -63 16 -72 25 -104 20 -144 -27 -26 -30 -138 -88 -148 -78
-2 2 2 13 8 25 10 18 14 19 28 8 16 -12 16 -11 0 7 -16 19 -16 23 3 64 23 52
25 99 4 107 -9 4 -76 -6 -150 -21 -74 -14 -145 -25 -156 -23 -13 2 -30 20 -45
47 -36 68 -82 121 -106 121 -20 0 -59 -36 -176 -163 -29 -31 -56 -57 -62 -57
-5 0 -11 12 -13 28 -3 22 -4 20 -6 -10 0 -21 -5 -38 -11 -38 -16 0 -43 -63
-42 -97 1 -18 -3 -33 -8 -33 -9 0 -14 15 -11 33 1 5 -3 6 -8 3 -5 -4 -23 5
-39 19 -49 41 -92 54 -180 53 -45 0 -82 -4 -82 -9 0 -5 -8 -17 -19 -28 -16
-16 -31 -18 -146 -13 -114 4 -132 8 -163 28 -19 13 -45 24 -58 24 -35 0 -39
20 -9 44 l28 23 -34 25 c-74 55 -115 78 -137 78 -19 0 -23 4 -17 18 17 40 28
113 18 123 -6 6 -39 7 -90 2 -75 -8 -81 -8 -89 12 -5 11 -16 21 -25 23 -22 4
-112 -69 -149 -120 -53 -72 -37 -122 50 -158 37 -15 31 -26 -43 -75 -60 -41
-88 -34 -106 24 -14 49 -42 73 -85 74 -32 1 -34 2 -21 17 8 9 15 35 15 57 0
47 -28 89 -74 108 -27 11 -33 11 -55 -6 -13 -10 -39 -19 -57 -19 -33 0 -34 -2
-34 -37 l-1 -38 -29 35 c-16 19 -37 58 -46 87 -15 43 -15 56 -4 82 17 42 58
75 127 102 113 44 332 27 406 -32 45 -35 32 -92 -25 -112 -13 -5 -18 -1 -18
13 0 11 -6 20 -14 20 -16 0 -76 -47 -76 -60 0 -16 57 -21 103 -9 96 24 129
106 67 167 -46 46 -109 64 -247 69 -104 5 -132 2 -190 -15 -118 -36 -173 -94
-173 -182 0 -56 27 -115 75 -168 l37 -41 -29 -51 c-39 -70 -65 -68 -88 10 -9
28 -18 37 -49 48 -22 7 -50 13 -63 14 -18 2 -23 8 -23 32 0 16 -9 48 -20 70
-22 47 -128 169 -139 161 -4 -2 -8 -21 -9 -41 -1 -21 -7 -53 -13 -72 l-11 -34
-35 34 c-50 48 -128 168 -148 228 l-17 51 40 43 c59 64 69 155 24 216 -23 31
-73 38 -93 14z m67 -49 c24 -37 15 -119 -18 -152 l-25 -25 -7 59 c-4 33 -5 66
-2 74 2 8 7 26 10 42 8 34 21 34 42 2z m5988 -800 c16 -12 17 -18 7 -42 -9
-22 -34 -39 -107 -73 -92 -44 -95 -45 -100 -24 -8 30 20 90 57 125 25 24 40
29 78 29 25 0 54 -7 65 -15z m-4964 -45 c0 -5 -5 -10 -11 -10 -5 0 -7 5 -4 10
3 6 8 10 11 10 2 0 4 -4 4 -10z m3716 -27 c-10 -10 -19 5 -10 18 6 11 8 11 12
0 2 -7 1 -15 -2 -18z m-4184 -17 c22 -32 -14 -173 -40 -157 -9 6 -7 12 8 26
24 22 26 59 5 108 -8 20 -15 39 -15 41 0 9 34 -7 42 -18z m147 3 c34 -12 38
-27 20 -77 -7 -21 -32 -47 -75 -77 -73 -51 -100 -58 -90 -22 28 98 36 149 26
167 -10 19 -7 20 38 20 27 0 63 -5 81 -11z m347 -31 c5 -7 -2 -9 -17 -5 -13 3
-44 9 -68 13 -39 6 -42 9 -27 20 14 10 26 9 62 -3 24 -8 47 -20 50 -25z m4542
4 c-7 -18 -16 -32 -20 -32 -15 0 -8 43 9 56 24 16 25 14 11 -24z m-4601 -41
c119 -23 149 -38 145 -68 -4 -29 -30 -30 -107 -3 -32 11 -66 20 -76 20 -10 0
-33 9 -51 20 -18 11 -44 20 -57 20 -24 0 -24 0 -5 15 25 19 35 19 151 -4z
m2336 -418 c17 5 44 -2 82 -19 70 -32 134 -30 215 9 41 19 57 23 67 15 10 -8
20 -8 37 2 21 11 29 8 77 -24 49 -33 60 -36 126 -36 70 0 75 2 113 36 39 35
41 36 60 19 13 -12 27 -15 48 -11 20 5 43 0 79 -19 37 -18 67 -25 108 -25 62
0 86 9 128 48 l27 26 20 -22 c16 -17 25 -20 40 -12 14 7 29 4 62 -15 93 -52
169 -51 250 3 33 21 41 23 49 11 5 -8 9 -20 9 -26 0 -16 24 -17 48 -2 14 9 27
7 63 -11 30 -16 63 -23 105 -24 62 -1 67 1 160 69 20 14 23 14 38 0 11 -11 21
-13 33 -7 21 11 63 -2 63 -18 0 -6 -5 -21 -11 -32 -8 -15 -8 -26 1 -43 11 -20
9 -28 -13 -57 -52 -67 -58 -180 -12 -218 13 -11 11 -16 -20 -37 -19 -13 -44
-27 -56 -31 -22 -9 -58 -96 -59 -143 0 -14 -9 -34 -20 -44 -11 -10 -26 -38
-32 -62 -5 -24 -14 -43 -19 -43 -5 0 -34 12 -66 26 -32 14 -82 34 -110 44 -29
10 -66 28 -82 39 -62 44 -65 19 -18 -137 39 -129 76 -196 120 -218 18 -9 34
-18 36 -20 2 -2 -5 -23 -17 -46 -53 -109 -54 -115 -36 -154 9 -19 43 -59 75
-87 72 -63 77 -82 17 -73 -24 4 -83 12 -131 17 -89 9 -132 25 -196 73 l-34 26
-48 -50 c-33 -35 -56 -50 -74 -50 -31 0 -45 -30 -45 -99 0 -56 27 -103 79
-138 36 -25 64 -28 124 -14 49 12 47 1 -5 -24 -33 -16 -45 -29 -57 -61 -18
-52 -6 -86 52 -145 l40 -42 82 6 c66 5 103 15 196 53 77 31 131 47 166 48 36
2 70 12 113 35 33 18 66 31 72 29 6 -2 17 -19 23 -38 11 -31 9 -38 -19 -80
-41 -61 -41 -107 1 -188 24 -45 35 -81 39 -131 6 -65 5 -71 -21 -105 -41 -54
-40 -122 3 -197 43 -75 45 -161 6 -257 -28 -72 -27 -107 7 -174 20 -40 25 -83
10 -92 -5 -4 -12 8 -16 26 -15 72 -71 118 -143 118 -55 0 -93 -22 -123 -71
-13 -21 -32 -39 -41 -39 -30 0 -112 -31 -133 -50 -16 -14 -30 -17 -67 -13 -53
6 -103 -18 -134 -65 -24 -36 -24 -118 0 -154 17 -26 17 -30 2 -62 -9 -19 -16
-45 -16 -58 0 -19 -9 -29 -41 -43 -73 -34 -109 -101 -90 -172 14 -53 58 -93
109 -100 68 -9 63 -39 -9 -62 -20 -6 -57 -25 -84 -42 -26 -16 -48 -29 -49 -27
-1 2 -19 26 -39 55 l-36 51 25 17 c39 25 64 75 64 125 0 75 -42 125 -122 144
-17 4 -28 13 -28 24 0 9 -9 34 -20 56 -18 33 -19 43 -9 73 6 19 9 56 6 81 -4
38 -13 53 -46 84 -33 31 -48 38 -80 38 -42 0 -84 -14 -113 -38 -14 -12 -21
-12 -45 1 -15 9 -39 18 -53 21 -34 8 -42 15 -66 61 -12 22 -36 50 -54 63 -83
57 -203 -3 -217 -108 -4 -25 -11 -40 -19 -40 -8 0 -22 -8 -32 -17 -45 -44 -48
-45 -88 -23 -74 39 -165 17 -199 -49 -19 -37 -19 -101 -1 -144 13 -31 12 -34
-18 -69 -28 -32 -37 -36 -78 -36 -56 0 -79 -12 -114 -58 -47 -60 -33 -144 34
-207 27 -26 29 -32 21 -65 -5 -20 -9 -53 -9 -72 0 -19 -11 -57 -25 -85 -32
-66 -31 -101 4 -157 23 -36 38 -48 74 -59 25 -7 44 -16 41 -20 -2 -4 -19 -3
-37 3 -39 12 -57 15 -181 29 -73 8 -122 8 -186 0 -80 -10 -199 -44 -248 -70
-18 -9 -27 -1 -88 80 -98 127 -124 130 -199 22 -39 -56 -56 -72 -75 -73 -14 0
-84 16 -157 36 -110 31 -135 35 -147 24 -22 -17 -20 -32 10 -123 15 -42 24
-80 21 -83 -12 -12 -95 41 -139 88 l-48 51 -52 -7 c-29 -3 -65 -9 -80 -12
l-28 -6 14 40 c8 22 21 53 30 70 8 16 12 32 9 36 -10 10 -172 7 -192 -3 -15
-9 -21 -2 -40 44 -12 29 -29 59 -37 66 -14 11 -32 -1 -125 -87 -12 -10 -19
-12 -24 -5 -3 6 -17 11 -30 11 -21 0 -27 -9 -45 -66 -35 -114 -21 -224 28
-224 12 0 11 -4 -7 -17 -23 -15 -26 -15 -70 9 -61 34 -117 41 -176 24 -32 -10
-55 -12 -72 -5 -13 5 -36 9 -51 9 -17 0 -39 13 -63 36 -49 48 -98 54 -159 20
-25 -14 -66 -35 -92 -48 -27 -12 -48 -27 -48 -34 0 -8 -23 -14 -67 -16 -60 -4
-74 -1 -120 24 -78 42 -119 45 -182 15 -35 -17 -69 -26 -101 -25 -27 0 -53 -2
-57 -5 -5 -3 -40 10 -79 28 -80 40 -132 44 -186 15 -52 -28 -139 -25 -200 6
-65 33 -138 32 -204 -1 -87 -44 -143 -31 -161 38 -12 44 -11 47 22 103 43 72
45 118 9 191 -24 46 -25 55 -14 82 7 17 21 33 31 36 40 13 59 54 59 125 0 58
-3 69 -25 90 -14 13 -25 27 -25 32 0 5 -11 25 -24 46 -36 55 -39 144 -7 196
37 59 40 133 8 198 -20 41 -25 62 -20 94 3 23 1 50 -5 60 -8 14 -3 27 23 62
65 84 67 142 10 226 -27 40 -30 57 -15 87 8 13 7 25 -1 40 -9 18 -5 33 21 91
27 58 32 78 28 120 -3 29 -14 61 -27 79 -19 25 -21 39 -17 102 2 39 14 99 25
131 27 76 26 109 -4 174 -32 69 -34 159 -5 232 25 64 25 123 0 178 -17 38 -18
47 -7 81 8 20 12 53 9 73 -2 23 4 53 18 84 23 52 21 95 -7 161 -18 45 -8 139
23 215 29 69 30 101 5 170 -11 29 -22 85 -26 125 -5 65 -4 77 20 124 32 62 29
109 -11 176 -19 32 -24 53 -21 86 5 55 12 67 42 67 13 0 31 10 39 22 l15 21
63 -33 c83 -45 138 -46 197 -6 41 29 43 29 70 13 28 -16 29 -16 43 4 13 21 14
21 66 -12 94 -58 196 -48 247 24 12 17 17 19 27 9 16 -16 47 -15 54 2 4 11 17
8 61 -15 72 -38 120 -38 200 1 34 17 69 27 77 24 9 -4 30 -1 46 6 26 11 33 10
48 -3 28 -25 118 -50 156 -43 18 4 53 20 76 37 30 22 45 28 53 20 14 -14 43
-14 66 1 15 9 29 7 69 -10 73 -32 130 -31 186 2 42 24 48 26 62 12 19 -20 23
-20 44 -1 16 14 20 13 48 -10 34 -28 115 -48 165 -39 17 4 50 17 73 29 28 16
45 21 55 14 8 -5 30 -7 49 -4 24 4 50 -1 83 -15 48 -21 125 -28 169 -15 12 4
42 23 66 42 23 19 42 30 42 26 0 -5 6 -17 13 -27 14 -19 47 -13 47 10 0 21 16
17 52 -15 24 -21 48 -31 89 -36 63 -8 104 5 157 49 l32 28 19 -23 c18 -23 20
-23 39 -6 18 17 22 16 83 -13 75 -35 129 -38 182 -10 20 11 55 20 76 20 22 0
51 5 65 11 21 10 29 8 53 -11 38 -30 89 -50 127 -50 44 1 111 34 132 65 l18
27 16 -23 c13 -16 23 -20 43 -16z m-4306 -101 c25 -16 17 -60 -26 -145 -39
-76 -44 -93 -45 -156 0 -79 -7 -75 -36 18 -34 106 -23 218 27 273 17 19 59 24
80 10z m17 -395 c-8 -23 -24 -21 -24 2 0 11 -3 28 -6 38 -6 16 -4 16 15 -3 14
-13 19 -27 15 -37z m6227 -980 c34 -52 66 -66 110 -50 25 10 28 8 34 -14 3
-14 4 -27 3 -29 -7 -7 -110 25 -156 48 -63 31 -84 62 -75 111 l6 39 23 -29
c13 -15 38 -49 55 -76z m1515 -25 c-15 -15 -16 -14 -16 15 0 17 6 33 13 36 18
6 21 -33 3 -51z m-1604 3 c25 -32 61 -51 163 -85 62 -21 81 -31 83 -47 3 -18
-9 -25 -75 -48 -43 -15 -97 -34 -120 -42 -37 -13 -50 -13 -100 -1 -51 12 -61
19 -80 53 -29 51 -29 57 6 77 17 9 45 39 63 67 18 28 35 51 37 51 2 0 12 -11
23 -25z m-46 -256 c8 -14 -10 -11 -32 6 -18 13 -18 14 4 8 12 -3 25 -9 28 -14z
m-6806 -71 c0 -29 -38 -68 -67 -68 -13 0 -23 5 -23 11 0 20 33 67 54 77 26 12
36 7 36 -20z m8228 7 c12 -3 22 -10 22 -15 0 -13 -40 -49 -74 -67 -16 -8 -56
-17 -88 -19 -32 -2 -84 -6 -115 -8 l-58 -4 3 53 4 52 41 -9 c41 -9 99 -6 145
8 20 6 22 3 23 -27 l1 -34 11 35 c6 19 16 38 21 42 11 7 16 7 64 -7z m-325
-57 c6 -41 3 -51 -18 -75 l-24 -28 -2 30 c-5 76 13 148 31 129 4 -5 10 -30 13
-56z m-8030 -117 c3 -14 0 -17 -14 -14 -15 4 -17 8 -8 19 15 18 16 18 22 -5z
m-8 -66 c17 -14 26 -25 22 -25 -14 0 -67 34 -67 42 0 14 14 8 45 -17z m7921
-85 c-2 -16 0 -27 5 -24 9 5 13 -8 33 -113 8 -40 10 -73 5 -73 -4 0 -20 15
-34 34 -14 18 -38 36 -53 39 -26 5 -27 8 -24 51 4 50 -1 55 -32 29 -12 -11 -9
-5 7 15 15 19 27 37 27 41 0 5 15 13 33 19 17 5 33 10 34 11 2 1 1 -12 -1 -29z
m-140 -121 c-21 -37 -98 -90 -112 -77 -2 3 -5 22 -7 43 l-2 38 53 12 c29 7 55
15 59 19 3 3 12 6 19 6 9 0 5 -13 -10 -41z m252 -79 l0 -25 -8 25 c-4 14 -8
34 -8 45 l-1 20 9 -20 c5 -11 8 -31 8 -45z m22 -44 c0 -8 -4 -18 -10 -21 -5
-3 -10 3 -10 14 0 12 5 21 10 21 6 0 10 -6 10 -14z m283 -117 c15 -6 27 -14
27 -16 0 -16 -130 -171 -151 -181 -4 -2 -15 21 -24 50 -10 29 -20 59 -23 67
-4 10 -1 12 9 6 12 -7 12 -6 1 7 -19 24 -6 81 21 94 22 10 73 0 140 -27z
m-187 -34 c-4 -41 -16 -41 -16 -1 0 20 4 35 9 31 5 -3 8 -17 7 -30z m4 -49 c0
-3 -4 -8 -10 -11 -5 -3 -10 -1 -10 4 0 6 5 11 10 11 6 0 10 -2 10 -4z m-7320
-31 c0 -8 -4 -17 -10 -20 -6 -4 -10 5 -10 20 0 15 4 24 10 20 6 -3 10 -12 10
-20z m-1910 -73 c0 -13 -12 -22 -22 -16 -10 6 -1 24 13 24 5 0 9 -4 9 -8z
m-31 -68 c-13 -14 -25 -20 -27 -14 -2 6 4 18 14 25 31 24 39 17 13 -11z
m10145 -179 c23 -23 37 -88 30 -133 -7 -45 -64 -126 -111 -158 -48 -32 -198
-70 -227 -56 -13 6 -44 14 -70 17 -25 4 -46 10 -46 14 0 11 236 222 314 280
72 55 86 59 110 36z m-1715 -74 c6 -10 7 -21 4 -25 -9 -8 -33 14 -33 30 0 20
18 17 29 -5z m1071 -6 c-13 -14 -26 -23 -28 -20 -7 7 29 45 41 45 6 0 0 -11
-13 -25z m-1391 -18 c6 -18 24 -48 39 -67 24 -28 36 -34 83 -38 58 -4 102 10
129 42 9 12 16 13 25 6 10 -8 9 -20 -3 -54 l-16 -44 38 -77 c34 -68 37 -80 26
-100 -7 -13 -10 -33 -7 -44 7 -29 -8 -27 -147 19 -115 39 -181 77 -234 133
-19 21 -22 29 -13 45 17 32 13 109 -6 139 -10 15 -13 28 -8 30 6 2 24 12 40
22 40 26 42 26 54 -12z m-1031 -41 c15 -8 34 -17 44 -20 15 -4 15 -9 2 -46
-25 -73 18 -165 93 -197 40 -16 95 -5 136 27 l25 20 21 -42 c11 -23 19 -42 18
-43 -1 0 -26 -10 -56 -23 l-54 -22 -51 39 c-88 68 -177 99 -324 111 -68 6
-110 4 -160 -6 -37 -8 -69 -14 -72 -14 -3 0 -6 18 -6 39 -1 22 -10 54 -20 72
-15 25 -16 33 -6 36 7 3 25 15 40 28 l27 23 20 -41 c24 -48 57 -75 109 -87 79
-17 145 29 167 116 6 24 14 44 16 44 3 0 17 -6 31 -14z m836 -224 c50 3 58 0
88 -29 45 -44 229 -136 315 -158 70 -18 71 -19 61 -45 -9 -27 -10 -27 -126
-34 -166 -9 -295 -39 -449 -103 -7 -3 -13 -1 -13 4 0 5 15 14 33 21 72 26 112
113 88 191 -14 47 -69 91 -113 91 -31 0 -45 17 -29 33 6 6 11 21 11 32 0 33 9
35 46 13 25 -15 47 -19 88 -16z m-969 -62 c132 -13 167 -22 266 -67 72 -33 75
-36 71 -63 -12 -80 38 -161 110 -180 31 -9 38 -15 33 -28 -4 -9 -11 -31 -16
-49 l-10 -32 -46 21 c-79 35 -150 10 -184 -65 -23 -51 -24 -98 -4 -137 l15
-28 -46 -16 c-34 -11 -46 -12 -49 -3 -29 95 -33 101 -82 135 -41 29 -101 31
-143 6 -26 -16 -40 -33 -67 -83 -1 -2 -16 3 -33 10 -38 17 -45 40 -26 78 49
94 -18 221 -116 221 -91 0 -173 -87 -166 -176 3 -40 2 -41 -17 -28 -11 8 -44
14 -77 14 -53 0 -58 2 -58 23 0 12 -3 39 -6 60 -7 37 -6 37 23 31 42 -8 95 17
129 62 23 30 29 47 29 88 0 28 -4 58 -8 67 -10 20 28 44 136 88 154 63 175 66
342 51z m-481 -19 c16 -17 15 -20 -17 -44 -25 -19 -37 -23 -50 -15 -16 9 -15
12 10 43 33 40 35 40 57 16z m3456 -101 c0 -16 -71 -90 -101 -105 -28 -15 -38
-13 -129 21 -22 8 28 33 135 65 50 15 91 28 93 28 1 1 2 -3 2 -9z m-326 -158
c2 -4 -13 -6 -35 -4 -21 2 -39 6 -39 8 0 7 69 4 74 -4z m-1214 -14 c0 -6 9
-31 21 -55 20 -42 22 -80 3 -76 -5 1 -23 7 -40 14 -67 26 -147 -16 -180 -95
l-18 -43 -38 15 c-32 13 -38 20 -38 44 0 73 -70 147 -140 149 l-35 0 40 16
c83 32 425 57 425 31z m-890 -99 l23 -71 -25 -25 -25 -25 -23 39 c-21 36 -22
39 -6 66 9 16 16 42 16 58 0 49 16 32 40 -42z m370 22 c-13 -11 -29 -17 -34
-14 -5 3 2 12 15 19 36 20 48 16 19 -5z m-1594 -119 c-15 -22 -19 -5 -10 55
l8 58 6 -50 c3 -27 1 -56 -4 -63z m1540 97 c3 -6 -1 -27 -10 -47 -14 -31 -29
-43 -95 -73 l-78 -36 -10 28 c-10 26 -8 31 20 51 35 25 148 87 159 88 4 0 10
-5 14 -11z m11 -204 l21 -33 -30 -29 c-16 -15 -41 -48 -55 -71 l-26 -44 -13
39 c-7 21 -26 50 -42 64 -16 15 -27 32 -23 38 4 6 34 31 66 56 52 38 61 42 70
29 6 -9 20 -31 32 -49z m-1224 5 c22 0 55 5 74 12 30 11 35 10 61 -15 15 -15
33 -27 39 -27 6 0 14 -17 18 -37 14 -74 63 -137 118 -149 26 -5 86 -58 87 -75
0 -4 -28 -9 -62 -11 -51 -4 -68 -1 -87 14 -30 23 -68 23 -106 0 -30 -19 -30
-19 -59 10 -23 23 -27 35 -22 58 3 16 1 32 -3 35 -8 4 -95 -20 -145 -40 -13
-6 -17 -5 -13 2 4 6 -9 25 -29 41 l-35 29 30 30 c34 35 48 91 34 138 l-10 33
35 -24 c22 -16 49 -24 75 -24z m3194 36 c-2 -6 -32 -12 -68 -13 -62 -2 -63 -2
-34 12 34 16 107 17 102 1z m-2267 -16 c0 -5 -5 -10 -11 -10 -5 0 -7 5 -4 10
3 6 8 10 11 10 2 0 4 -4 4 -10z m-296 -95 c31 -24 5 -39 -74 -43 -59 -4 -70
-2 -70 12 0 11 9 16 33 16 17 1 43 7 57 15 31 18 31 18 54 0z m-1011 -131 c17
-10 16 -12 -9 -37 -14 -14 -35 -29 -45 -32 -10 -4 -19 -11 -19 -16 0 -5 -6 -9
-13 -9 -7 0 -30 -9 -51 -21 -32 -17 -49 -20 -91 -14 -28 3 -63 1 -78 -4 -22
-9 -35 -6 -73 14 -26 14 -56 25 -68 25 -20 1 -56 21 -56 32 0 8 106 50 164 64
60 16 311 14 339 -2z m-1845 -150 c-9 -10 -24 -14 -33 -10 -23 9 -9 26 23 26
24 0 25 -1 10 -16z m4971 -51 c-11 -13 -10 -17 4 -28 31 -22 -1 -29 -44 -10
-43 20 -44 23 -28 59 15 32 39 37 62 14 16 -16 16 -22 6 -35z m85 41 c4 -9 1
-22 -5 -30 -6 -7 -8 -22 -4 -33 3 -10 1 -22 -5 -26 -10 -6 -11 -5 -15 31 -1
12 -5 27 -9 33 -8 12 10 41 24 41 4 0 11 -7 14 -16z m56 -76 c0 -15 -30 -48
-44 -48 -6 0 -3 5 7 11 9 5 17 19 17 29 0 11 5 20 10 20 6 0 10 -5 10 -12z
m-4353 -290 c-3 -8 -6 -5 -6 6 -1 11 2 17 5 13 3 -3 4 -12 1 -19z m4039 -3 c3
-14 1 -39 -6 -56 -13 -31 -14 -31 -69 -24 -75 9 -153 43 -149 64 4 20 80 39
160 40 54 1 58 -1 64 -24z m-6188 -225 c38 -23 41 -40 8 -40 -15 0 -26 7 -29
20 -3 13 -14 20 -29 20 -18 0 -20 2 -8 10 20 13 20 13 58 -10z m97 -18 c-10
-2 -25 3 -33 12 -15 14 -13 15 17 3 23 -8 28 -13 16 -15z m-185 -14 c0 -11
-52 -10 -69 1 -10 6 -1 9 27 8 23 -1 42 -5 42 -9z m3063 -27 c-47 -42 -52 -44
-46 -19 9 43 11 46 38 40 25 -4 25 -5 8 -21z m400 -121 c19 -38 2 -53 -23 -20
-13 18 -15 27 -6 36 14 17 12 18 29 -16z m97 -34 c0 -18 -1 -18 -19 -2 -12 11
-16 25 -13 43 l5 26 13 -24 c7 -13 13 -33 14 -43z m-3240 14 c-8 -5 -22 -10
-30 -10 -13 0 -13 1 0 10 8 5 22 10 30 10 13 0 13 -1 0 -10z m-92 -12 c-3 -7
-13 -13 -23 -13 -10 0 -20 6 -22 13 -3 7 5 12 22 12 17 0 25 -5 23 -12z m3192
-9 c0 -5 -7 -9 -15 -9 -9 0 -12 6 -9 15 6 15 24 11 24 -6z m1460 8 c0 -2 -12
-14 -27 -28 -20 -18 -24 -19 -13 -4 18 24 40 42 40 32z m-2194 -53 c48 -28 48
-23 -1 -84 -12 -16 -28 -24 -40 -22 -37 7 -134 54 -139 68 -4 11 -1 11 18 -1
21 -14 24 -14 30 0 3 9 10 13 16 10 5 -3 10 1 10 9 0 9 6 16 14 16 7 0 19 7
26 15 16 19 14 20 66 -11z m2241 -18 c-7 -47 9 -74 37 -63 8 3 21 -2 30 -12
16 -17 16 -21 0 -54 l-17 -36 -21 31 c-43 63 -97 84 -171 65 l-30 -7 30 16
c17 9 37 23 46 30 9 8 23 12 32 8 18 -7 47 17 47 39 0 13 9 27 18 27 3 0 2
-20 -1 -44z m-107 19 c0 -2 -10 -10 -22 -16 -21 -11 -22 -11 -9 4 13 16 31 23
31 12z m-1049 -75 c10 -6 19 -20 19 -31 0 -12 10 -24 28 -31 78 -31 95 -44
113 -86 22 -52 23 -58 6 -65 -20 -7 -153 38 -197 67 -34 23 -38 30 -41 75 -5
69 23 97 72 71z m-2085 -51 c13 -1 68 -69 56 -69 -39 0 -167 33 -186 47 l-23
18 24 19 c13 10 30 15 38 12 7 -2 16 2 19 11 6 14 11 12 34 -10 16 -15 32 -27
38 -28z m790 37 c23 6 155 -38 156 -51 0 -5 -29 -20 -64 -33 -48 -18 -90 -25
-173 -28 l-110 -4 35 19 c20 10 53 39 75 64 24 27 44 41 51 36 5 -4 19 -6 30
-3z m2703 -45 c12 -8 9 -21 -18 -76 -49 -98 -190 -237 -294 -289 -43 -22 -98
-42 -123 -46 -43 -7 -44 -6 -44 22 0 35 -47 108 -69 108 -29 0 -154 -31 -223
-55 l-68 -24 16 32 c20 39 101 141 142 181 l30 28 16 -31 c9 -17 22 -31 29
-32 6 0 36 -2 65 -3 40 -2 59 -9 80 -28 55 -52 101 -60 172 -32 44 18 75 59
85 117 4 20 16 54 26 74 11 21 19 43 19 50 0 15 136 18 159 4z m379 -120 c52
-92 4 -211 -84 -211 -24 0 -33 5 -38 23 -9 36 -7 145 4 152 6 3 10 15 10 25 0
22 36 50 65 50 14 0 29 -13 43 -39z m-3773 9 c25 -11 -1 -11 -35 0 -20 6 -21
8 -5 8 11 0 29 -3 40 -8z m835 -30 c0 -11 -5 -28 -11 -38 -10 -15 -7 -23 15
-45 29 -29 31 -39 14 -67 -10 -15 -10 -22 0 -32 6 -6 12 -20 12 -30 0 -10 19
-28 45 -44 25 -14 45 -32 45 -40 0 -8 9 -14 20 -14 21 0 66 -25 85 -46 6 -6
19 -17 30 -23 16 -10 2 -11 -70 -7 -81 5 -98 9 -174 48 -46 24 -117 70 -158
103 -74 60 -75 60 -78 113 l-2 52 50 18 c28 9 76 29 106 44 69 33 71 33 71 8z
m1182 -32 c-49 -19 -118 5 -106 37 4 10 18 9 64 -8 44 -16 55 -24 42 -29z
m630 5 c-16 -21 -52 -73 -80 -115 -46 -72 -51 -76 -65 -60 -15 16 -14 24 7 92
l22 75 60 22 c83 31 90 29 56 -14z m-4202 -49 c-10 -27 -19 -43 -20 -37 0 16
31 95 36 90 2 -2 -5 -25 -16 -53z m1655 25 c14 -6 7 -8 -24 -6 -26 1 -46 7
-49 15 -4 13 28 9 73 -9z m2362 -44 l-10 -35 -24 22 c-29 27 -29 35 0 41 46 9
46 9 34 -28z m-2341 -55 l25 0 -28 -24 c-30 -26 -37 -25 -48 13 -6 20 -4 23
10 18 9 -4 28 -7 41 -7z m147 -11 c7 -5 39 -23 72 -39 l60 -29 -65 7 c-36 4
-98 7 -138 7 l-74 0 38 33 c38 33 83 42 107 21z m-1628 -154 c-24 -105 -53
-165 -80 -165 -24 0 -75 35 -75 51 0 25 156 196 168 184 2 -1 -4 -33 -13 -70z
m3444 -46 c-11 -22 -12 -22 -25 -4 -12 16 -11 22 6 40 11 12 21 28 22 36 0 8
3 0 5 -18 2 -18 -1 -42 -8 -54z"/>
<path d="M8099 8157 c-4 -18 -1 -33 8 -43 18 -17 29 -19 15 -1 -6 6 -12 26
-14 42 l-3 30 -6 -28z"/>
<path d="M10561 8134 c0 -11 3 -14 6 -6 3 7 2 16 -1 19 -3 4 -6 -2 -5 -13z"/>
<path d="M7574 8074 c-18 -14 -18 -15 4 -4 12 6 22 13 22 15 0 8 -5 6 -26 -11z"/>
<path d="M7700 8086 c0 -3 13 -12 29 -20 27 -14 28 -18 28 -84 l0 -70 -55 -31
c-29 -17 -59 -28 -64 -24 -7 4 -8 1 -3 -8 5 -7 8 -30 6 -51 -1 -23 2 -38 9
-38 6 0 8 5 5 11 -4 6 -4 26 -1 44 6 28 16 39 59 62 l53 29 51 -32 50 -33 1
-63 c1 -34 -4 -68 -9 -74 -8 -9 -5 -11 10 -7 12 3 29 -1 39 -8 9 -7 7 -2 -5
12 -18 20 -22 35 -20 84 l2 59 55 32 c53 31 55 31 80 14 14 -9 37 -24 51 -33
25 -15 26 -20 25 -83 l-2 -67 -51 -29 c-50 -28 -53 -29 -82 -13 -17 8 -31 13
-31 11 0 -3 13 -12 28 -20 27 -14 28 -17 25 -82 -1 -47 -7 -72 -17 -79 -45
-32 -47 -34 -13 -16 36 20 40 20 65 5 l27 -16 -23 18 c-18 16 -22 30 -24 80
-1 33 2 65 5 71 4 6 28 23 54 39 l47 27 48 -27 49 -28 39 26 c46 30 52 31 88
10 l27 -16 -27 22 c-26 20 -28 27 -28 89 l0 68 -51 28 -51 27 -48 -26 -48 -26
-46 26 c-25 14 -48 30 -51 35 -11 17 -9 127 2 140 9 11 6 14 -17 14 -22 0 -26
-3 -17 -13 5 -7 10 -41 9 -75 -1 -66 -5 -72 -73 -107 l-36 -19 -50 29 -51 29
-1 68 c0 58 3 71 22 87 l22 18 -25 -14 c-22 -13 -27 -13 -57 5 -18 10 -33 16
-33 13z m545 -219 l40 -23 0 -64 c0 -64 0 -64 -42 -93 l-42 -30 -44 27 -45 26
-1 67 0 68 37 21 c48 28 50 28 97 1z"/>
<path d="M7517 8059 c8 -10 12 -42 10 -87 -1 -39 2 -68 6 -63 4 4 9 40 11 79
1 40 1 70 -2 67 -3 -3 -12 1 -21 8 -14 10 -14 10 -4 -4z"/>
<path d="M9184 8038 l-19 -23 25 20 c14 11 27 21 29 22 2 2 0 3 -6 3 -5 0 -18
-10 -29 -22z"/>
<path d="M10668 7984 c2 -42 6 -74 8 -71 8 8 6 129 -2 137 -5 5 -8 -24 -6 -66z"/>
<path d="M6168 8043 c7 -3 16 -2 19 1 4 3 -2 6 -13 5 -11 0 -14 -3 -6 -6z"/>
<path d="M10441 8034 c0 -11 3 -14 6 -6 3 7 2 16 -1 19 -3 4 -6 -2 -5 -13z"/>
<path d="M6119 8013 l-24 -28 28 24 c15 14 27 26 27 28 0 8 -8 1 -31 -24z"/>
<path d="M6000 8005 c13 -14 26 -25 28 -25 3 0 -5 11 -18 25 -13 14 -26 25
-28 25 -3 0 5 -11 18 -25z"/>
<path d="M6159 7988 c-45 -49 -89 -114 -90 -135 0 -13 -3 -12 -10 7 -12 31
-123 120 -150 120 -26 0 -24 -24 9 -90 21 -43 32 -55 50 -54 20 1 21 -1 7 -16
-20 -22 -19 -49 2 -72 14 -16 14 -22 3 -43 -12 -22 -12 -28 1 -41 22 -21 49
-7 49 25 0 15 9 44 20 66 11 22 20 48 20 60 0 13 7 5 20 -23 10 -23 26 -45 35
-48 8 -3 15 -16 15 -29 0 -32 25 -51 45 -35 20 16 19 40 -1 55 -13 9 -14 16
-5 33 20 38 13 60 -26 81 -21 11 -34 20 -30 21 5 0 17 -4 27 -10 35 -19 59 27
63 120 3 45 -17 48 -54 8z"/>
<path d="M9272 8008 c-17 -22 -49 -91 -67 -147 -14 -44 -15 -60 -6 -92 11 -37
72 -99 97 -99 7 0 21 -16 33 -35 25 -42 58 -47 67 -10 7 27 -10 55 -32 55 -10
0 -13 13 -12 46 3 51 -15 73 -61 75 -21 1 -22 2 -6 6 43 11 48 23 41 107 -8
95 -27 127 -54 94z"/>
<path d="M10898 7987 c-3 -19 -2 -25 4 -19 6 6 8 18 6 28 -3 14 -5 12 -10 -9z"/>
<path d="M9152 7950 c0 -19 2 -27 5 -17 2 9 2 25 0 35 -3 9 -5 1 -5 -18z"/>
<path d="M10900 7931 c0 -11 4 -22 9 -25 4 -3 6 6 3 19 -5 30 -12 33 -12 6z"/>
<path d="M8978 7923 c6 -2 18 -2 25 0 6 3 1 5 -13 5 -14 0 -19 -2 -12 -5z"/>
<path d="M8935 7910 c-3 -6 1 -7 9 -4 18 7 21 14 7 14 -6 0 -13 -4 -16 -10z"/>
<path d="M6061 7894 c0 -11 3 -14 6 -6 3 7 2 16 -1 19 -3 4 -6 -2 -5 -13z"/>
<path d="M9050 7906 c0 -2 7 -7 16 -10 8 -3 12 -2 9 4 -6 10 -25 14 -25 6z"/>
<path d="M9090 7886 c0 -2 8 -10 18 -17 15 -13 16 -12 3 4 -13 16 -21 21 -21
13z"/>
<path d="M8943 7869 c-15 -15 -4 -38 49 -99 55 -63 73 -67 109 -29 36 38 37
34 4 -11 -34 -47 -32 -74 9 -105 31 -24 34 -29 24 -50 -14 -30 4 -55 38 -55
27 0 40 30 24 60 -8 16 -8 35 1 75 11 50 10 57 -12 102 -22 45 -29 50 -104 80
-104 41 -127 47 -142 32z"/>
<path d="M11012 7830 c0 -14 2 -19 5 -12 2 6 2 18 0 25 -3 6 -5 1 -5 -13z"/>
<path d="M9160 7821 c0 -5 5 -13 10 -16 6 -3 10 -2 10 4 0 5 -4 13 -10 16 -5
3 -10 2 -10 -4z"/>
<path d="M11016 7785 c-3 -9 -6 -22 -5 -28 0 -7 5 -1 10 12 5 13 8 26 5 28 -2
2 -6 -3 -10 -12z"/>
<path d="M11241 7724 c0 -11 3 -14 6 -6 3 7 2 16 -1 19 -3 4 -6 -2 -5 -13z"/>
<path d="M7814 7674 c-18 -14 -18 -15 4 -4 12 6 22 13 22 15 0 8 -5 6 -26 -11z"/>
<path d="M7748 7648 c5 -7 10 -42 11 -77 0 -35 3 -66 5 -69 3 -2 5 29 5 71 0
59 -4 77 -16 81 -12 5 -13 3 -5 -6z"/>
<path d="M7874 7436 c-3 -8 -4 -31 -2 -52 3 -36 4 -35 8 14 5 53 4 63 -6 38z"/>
<path d="M7872 7320 c0 -14 2 -19 5 -12 2 6 2 18 0 25 -3 6 -5 1 -5 -13z"/>
<path d="M8970 7316 c0 -8 4 -17 9 -20 5 -4 7 3 4 14 -6 23 -13 26 -13 6z"/>
<path d="M8174 7074 c-18 -14 -18 -15 4 -4 12 6 22 13 22 15 0 8 -5 6 -26 -11z"/>
<path d="M10984 6805 c-9 -13 -14 -28 -12 -33 1 -5 10 6 19 24 19 40 16 44 -7
9z"/>
<path d="M11076 6778 c-32 -50 -78 -188 -71 -216 l7 -27 -21 26 c-11 15 -46
37 -78 49 -32 13 -63 27 -68 31 -6 4 -28 9 -50 11 -63 5 -59 -26 12 -101 32
-33 64 -61 70 -61 6 0 23 14 37 31 32 38 34 29 4 -12 -19 -25 -23 -44 -23
-105 0 -41 4 -74 8 -74 5 0 7 18 5 40 -4 45 0 48 33 21 20 -16 21 -21 10 -34
-20 -25 3 -59 37 -55 31 3 40 29 22 62 -8 16 -8 30 -1 50 6 15 11 43 11 62 l0
35 37 -30 c21 -17 43 -31 49 -31 7 0 21 -16 33 -36 16 -26 27 -35 44 -32 18 2
22 9 22 38 0 29 -4 36 -23 38 -20 3 -21 7 -16 43 8 49 -14 78 -60 80 -24 1
-26 3 -8 6 43 8 55 43 43 124 -7 40 -14 76 -17 80 -10 16 -33 9 -48 -13z"/>
<path d="M10962 6720 c0 -14 2 -19 5 -12 2 6 2 18 0 25 -3 6 -5 1 -5 -13z"/>
<path d="M10788 6703 c6 -2 18 -2 25 0 6 3 1 5 -13 5 -14 0 -19 -2 -12 -5z"/>
<path d="M10865 6680 c3 -5 11 -10 16 -10 6 0 7 5 4 10 -3 6 -11 10 -16 10 -6
0 -7 -4 -4 -10z"/>
<path d="M10940 6633 c25 -23 47 -39 49 -37 4 4 -53 54 -78 68 -9 5 4 -9 29
-31z"/>
<path d="M10966 6647 c3 -10 9 -15 12 -12 3 3 0 11 -7 18 -10 9 -11 8 -5 -6z"/>
<path d="M2549 6563 l-24 -28 28 24 c25 23 32 31 24 31 -2 0 -14 -12 -28 -27z"/>
<path d="M2643 6542 c-14 -9 -65 -118 -83 -178 -11 -36 -10 -45 9 -83 14 -26
39 -53 68 -71 25 -16 51 -40 57 -52 13 -27 48 -35 64 -15 17 20 3 54 -24 61
-22 6 -23 10 -18 50 6 38 3 45 -17 60 -13 9 -38 16 -56 16 -17 0 -34 4 -37 9
-4 5 11 7 33 4 55 -7 65 14 52 109 -10 73 -26 103 -48 90z"/>
<path d="M10786 6503 c-6 -14 -5 -15 5 -6 7 7 10 15 7 18 -3 3 -9 -2 -12 -12z"/>
<path d="M2300 6440 c-18 -12 -2 -12 25 0 13 6 15 9 5 9 -8 0 -22 -4 -30 -9z"/>
<path d="M2378 6443 c7 -3 16 -2 19 1 4 3 -2 6 -13 5 -11 0 -14 -3 -6 -6z"/>
<path d="M2462 6404 c10 -10 20 -16 22 -13 3 3 -5 11 -17 18 -21 13 -21 12 -5
-5z"/>
<path d="M2300 6384 c0 -10 17 -38 38 -63 76 -93 86 -97 128 -53 25 26 24 14
-1 -18 -30 -37 -28 -60 10 -95 28 -27 34 -38 27 -52 -12 -23 -5 -40 20 -54 36
-19 68 37 38 67 -8 8 -8 19 0 38 15 40 12 97 -6 131 -9 17 -16 40 -16 53 1 12
-3 22 -8 22 -5 0 -7 -7 -4 -15 7 -16 -6 -20 -21 -6 -6 4 -40 20 -78 35 -78 30
-127 34 -127 10z"/>
<path d="M10900 6308 c0 -6 -8 -21 -17 -32 -16 -19 -16 -19 -1 -7 9 7 21 10
26 7 5 -3 7 6 4 19 -5 26 -12 34 -12 13z"/>
<path d="M12047 5498 c-41 -64 -56 -101 -47 -118 8 -15 4 -19 -20 -23 -23 -5
-31 -14 -38 -39 -5 -18 -15 -32 -22 -30 -17 4 -40 -17 -40 -38 0 -26 25 -31
52 -11 13 10 41 21 62 24 59 9 93 48 102 114 7 61 -5 134 -23 140 -6 2 -18 -6
-26 -19z m0 -144 c-3 -3 -12 -4 -19 -1 -8 3 -5 6 6 6 11 1 17 -2 13 -5z"/>
<path d="M12162 5470 c0 -19 2 -27 5 -17 2 9 2 25 0 35 -3 9 -5 1 -5 -18z"/>
<path d="M12136 5383 c-6 -14 -5 -15 5 -6 7 7 10 15 7 18 -3 3 -9 -2 -12 -12z"/>
<path d="M12112 5348 c-7 -7 -12 -18 -12 -24 0 -7 -9 -19 -20 -27 -26 -18 -50
-65 -50 -98 0 -15 -7 -32 -15 -39 -8 -7 -15 -21 -15 -32 0 -31 52 -20 60 12 4
16 14 26 28 28 26 4 53 39 45 59 -5 13 -3 13 15 2 19 -12 29 -10 77 14 99 48
85 77 -38 77 -75 0 -77 1 -67 20 12 23 9 25 -8 8z"/>
<path d="M12168 5353 c7 -3 16 -2 19 1 4 3 -2 6 -13 5 -11 0 -14 -3 -6 -6z"/>
<path d="M11445 2965 c47 -17 69 -41 103 -113 28 -61 44 -200 29 -245 -14 -41
-4 -127 20 -175 12 -25 17 -46 12 -54 -14 -22 -10 -75 7 -88 42 -36 107 38 69
79 -17 20 -17 22 19 61 50 56 49 93 -4 145 -22 21 -40 44 -40 49 0 5 15 -5 34
-23 54 -53 80 -43 144 54 61 94 71 121 49 142 -14 14 -22 13 -84 -16 -75 -36
-155 -84 -192 -115 l-23 -21 7 25 c15 53 51 117 89 158 49 53 68 64 126 73
l45 6 -38 2 c-74 2 -128 -38 -191 -143 -30 -50 -36 -56 -36 -34 0 14 -9 56
-21 92 -25 83 -89 156 -135 156 -27 -1 -27 -2 11 -15z"/>
<path d="M11376 2921 c-24 -27 -12 -222 15 -247 18 -17 58 -16 103 2 13 5 17
4 13 -3 -4 -6 -29 -16 -57 -23 -33 -8 -57 -21 -71 -39 -21 -26 -21 -34 -3
-113 5 -23 2 -29 -19 -37 -46 -18 -47 -86 -1 -97 36 -9 50 0 65 44 9 26 29 51
58 73 51 39 82 92 88 153 6 47 -17 100 -93 218 -51 79 -74 96 -98 69z"/>
<path d="M1385 2909 c-4 -6 -5 -12 -2 -15 2 -3 7 2 10 11 7 17 1 20 -8 4z"/>
<path d="M1462 2908 c-7 -7 -12 -45 -12 -96 0 -82 1 -85 34 -118 19 -19 45
-35 57 -35 39 -2 43 -3 72 -23 25 -17 30 -18 44 -4 21 21 1 62 -27 53 -14 -5
-20 1 -25 25 -8 36 -34 53 -72 45 -25 -5 -26 -5 -5 4 28 13 28 30 -2 89 -30
60 -48 76 -64 60z"/>
<path d="M1239 2733 c-13 -16 -12 -17 4 -4 9 7 17 15 17 17 0 8 -8 3 -21 -13z"/>
<path d="M1420 2736 c0 -2 7 -7 16 -10 8 -3 12 -2 9 4 -6 10 -25 14 -25 6z"/>
<path d="M1272 2709 c-13 -5 -22 -15 -20 -21 7 -22 101 -69 131 -65 20 3 27
-1 27 -14 0 -21 17 -35 53 -44 18 -5 26 -12 23 -21 -6 -16 21 -47 37 -41 6 2
15 11 21 20 8 12 5 22 -12 40 -12 13 -22 33 -22 46 0 35 -28 79 -60 96 -32 17
-141 19 -178 4z m145 -61 c-3 -8 -6 -5 -6 6 -1 11 2 17 5 13 3 -3 4 -12 1 -19z"/>
<path d="M2056 2396 c-30 -40 -32 -46 -10 -46 10 0 14 -6 11 -14 -7 -17 18
-40 33 -31 15 9 12 33 -5 42 -16 9 -7 30 15 33 38 6 51 0 45 -19 -3 -11 -2
-22 2 -24 13 -8 8 -53 -6 -71 -7 -8 -10 -19 -7 -24 3 -6 -1 -15 -9 -22 -8 -7
-15 -16 -15 -21 0 -16 -96 -105 -109 -101 -7 2 -18 -4 -25 -13 -10 -14 -17
-15 -33 -7 -17 9 -24 8 -38 -8 -10 -11 -15 -23 -11 -28 4 -4 39 -7 78 -8 67 0
70 0 65 22 -3 19 1 24 22 26 18 2 27 10 29 24 2 12 12 24 24 27 15 4 19 11 15
26 -4 16 0 21 15 21 16 0 19 5 16 25 -4 17 -1 25 9 25 19 0 28 28 13 45 -8 10
-9 15 -2 15 15 0 8 65 -8 85 -7 8 -9 15 -5 15 4 0 2 7 -5 15 -9 11 -16 12 -25
5 -9 -7 -16 -6 -25 5 -18 22 -24 19 -54 -19z"/>
<path d="M2200 2415 c-10 -12 -9 -16 5 -21 19 -8 40 9 31 25 -10 15 -21 14
-36 -4z"/>
<path d="M2331 2416 c-7 -8 -20 -12 -30 -9 -23 6 -37 -25 -15 -34 8 -3 20 -1
25 4 6 6 21 8 35 5 23 -4 24 -6 9 -28 -20 -31 -19 -44 5 -44 11 0 20 7 20 15
0 8 9 15 20 15 26 0 27 36 1 45 -10 3 -21 15 -24 25 -6 23 -29 26 -46 6z"/>
<path d="M2252 2357 c-14 -16 -6 -27 20 -27 13 0 18 6 16 17 -4 22 -22 27 -36
10z"/>
<path d="M2244 2309 c-4 -7 1 -18 11 -25 15 -11 16 -16 6 -28 -15 -18 -6 -36
17 -36 12 0 13 -3 5 -11 -15 -15 -5 -39 17 -39 13 0 17 -6 13 -19 -3 -12 2
-20 14 -23 42 -11 60 21 23 44 -11 7 -20 19 -20 26 0 7 -7 15 -15 18 -10 4
-13 13 -10 24 3 11 0 22 -9 27 -8 4 -14 17 -13 28 2 22 -27 33 -39 14z"/>
<path d="M1901 2186 c-17 -20 -6 -36 25 -36 21 0 25 4 22 22 -4 27 -30 35 -47
14z"/>
<path d="M2479 2164 c-27 -27 -30 -36 -20 -47 10 -10 16 -7 31 11 10 12 24 21
32 20 18 -4 22 38 5 45 -9 3 -29 -9 -48 -29z"/>
<path d="M1857 2153 c-14 -13 -6 -33 13 -33 13 0 20 7 20 20 0 19 -20 27 -33
13z"/>
<path d="M1950 2145 c-10 -12 -9 -16 5 -21 19 -8 40 9 31 25 -10 15 -21 14
-36 -4z"/>
<path d="M2543 2143 c-4 -9 -1 -19 5 -21 8 -2 8 -8 0 -22 -6 -10 -18 -16 -25
-13 -8 3 -20 -3 -27 -13 -13 -17 -14 -17 -20 4 -8 26 -31 28 -53 7 -22 -22 -9
-47 24 -44 16 1 36 -1 45 -5 27 -12 52 -3 58 22 3 13 10 22 15 20 6 -2 11 16
12 40 1 31 -3 42 -13 42 -8 0 -18 -8 -21 -17z"/>
<path d="M10317 2132 c-19 -20 -13 -32 14 -32 25 0 34 19 17 36 -12 13 -17 12
-31 -4z"/>
<path d="M2366 2121 c-21 -24 -13 -41 19 -41 29 0 39 24 19 45 -19 19 -17 19
-38 -4z"/>
<path d="M3006 2125 c-3 -9 1 -18 10 -22 19 -7 39 11 30 26 -10 16 -33 13 -40
-4z"/>
<path d="M3600 2125 c-10 -12 -9 -16 5 -21 19 -8 40 9 31 25 -10 15 -21 14
-36 -4z"/>
<path d="M3655 2130 c-4 -7 -3 -16 3 -22 14 -14 45 -2 40 15 -6 16 -34 21 -43
7z"/>
<path d="M11177 2134 c-16 -16 -6 -35 16 -32 12 2 22 10 22 18 0 16 -26 25
-38 14z"/>
<path d="M1857 2103 c-14 -13 -6 -33 13 -33 13 0 20 7 20 20 0 19 -20 27 -33
13z"/>
<path d="M2972 2087 c-14 -16 -6 -27 20 -27 13 0 18 6 16 17 -4 22 -22 27 -36
10z"/>
<path d="M11214 2079 c-9 -15 12 -33 30 -26 9 4 16 13 16 22 0 17 -35 21 -46
4z"/>
<path d="M2933 2044 c-7 -19 11 -39 26 -30 16 10 13 33 -4 40 -9 3 -18 -1 -22
-10z"/>
<path d="M2678 2009 c-33 -47 -34 -55 -9 -62 21 -5 41 9 41 29 0 15 44 23 64
12 20 -11 34 18 17 35 -9 9 -14 9 -20 -2 -7 -11 -11 -9 -20 8 -17 32 -43 25
-73 -20z"/>
<path d="M11259 2034 c-10 -13 -10 -17 1 -24 17 -10 40 -2 40 15 0 20 -27 26
-41 9z"/>
<path d="M11482 2030 c-7 -11 -21 -20 -31 -20 -11 0 -23 -5 -27 -11 -10 -17
12 -33 33 -24 10 5 29 9 42 10 32 1 49 28 32 49 -18 21 -34 20 -49 -4z"/>
<path d="M2896 1993 c-9 -22 10 -41 25 -26 13 13 5 43 -10 43 -5 0 -12 -8 -15
-17z"/>
<path d="M1624 1989 c-3 -6 -1 -16 4 -21 13 -13 45 8 36 23 -7 12 -31 11 -40
-2z"/>
<path d="M10325 1990 c-4 -6 -1 -17 5 -26 14 -16 40 -2 40 22 0 16 -36 19 -45
4z"/>
<path d="M11295 1990 c-4 -7 -3 -16 3 -22 14 -14 45 -2 40 15 -6 16 -34 21
-43 7z"/>
<path d="M1571 1980 c-8 -4 -11 -15 -8 -23 3 -9 -2 -17 -14 -20 -22 -6 -26
-42 -5 -50 19 -7 42 21 38 45 -2 10 2 18 7 18 13 0 15 26 3 34 -4 2 -14 1 -21
-4z"/>
<path d="M1684 1979 c-3 -6 -1 -16 4 -21 13 -13 45 8 36 23 -7 12 -31 11 -40
-2z"/>
<path d="M11532 1978 c-20 -20 -14 -38 12 -38 30 0 42 16 26 35 -15 18 -22 19
-38 3z"/>
<path d="M10387 1974 c-16 -16 -6 -35 16 -32 12 2 22 10 22 18 0 16 -26 25
-38 14z"/>
<path d="M1735 1950 c-4 -7 -3 -16 3 -22 14 -14 45 -2 40 15 -6 16 -34 21 -43
7z"/>
<path d="M2852 1947 c-14 -16 -6 -27 20 -27 13 0 18 6 16 17 -4 22 -22 27 -36
10z"/>
<path d="M11340 1944 c-9 -10 -10 -18 -2 -26 12 -12 32 -2 32 17 0 21 -16 26
-30 9z"/>
<path d="M2692 1928 c-16 -16 -15 -25 2 -31 21 -8 40 17 23 31 -10 9 -17 8
-25 0z"/>
<path d="M2807 1924 c-14 -15 -6 -34 14 -34 14 0 19 5 17 17 -3 18 -20 27 -31
17z"/>
<path d="M10401 1906 c-10 -26 -44 -39 -59 -24 -14 14 -42 2 -42 -18 0 -12 7
-15 24 -12 15 3 27 -2 35 -14 6 -10 16 -18 22 -18 14 0 39 26 39 40 0 7 10 20
22 29 24 20 17 41 -13 41 -11 0 -23 -10 -28 -24z"/>
<path d="M11512 1918 c-19 -19 -14 -30 11 -26 12 2 22 9 22 17 0 19 -18 24
-33 9z"/>
<path d="M2740 1905 c-12 -14 -11 -18 1 -26 20 -12 34 -6 34 16 0 24 -19 30
-35 10z"/>
<path d="M11387 1913 c-14 -13 -6 -33 13 -33 13 0 20 7 20 20 0 19 -20 27 -33
13z"/>
<path d="M1773 1895 c-3 -9 -3 -18 0 -22 10 -10 37 6 37 22 0 20 -29 20 -37 0z"/>
<path d="M11445 1900 c-8 -14 3 -30 21 -30 8 0 14 9 14 20 0 21 -24 28 -35 10z"/>
<path d="M1610 1891 c-26 -4 -36 -12 -38 -29 -4 -27 23 -41 47 -24 9 7 26 16
39 22 12 5 22 16 22 25 0 16 -11 17 -70 6z"/>
<path d="M11177 1894 c-3 -4 -28 -8 -54 -9 -40 -1 -48 -5 -53 -24 -3 -12 -8
-22 -12 -22 -38 3 -48 -1 -48 -20 0 -12 -8 -23 -20 -26 -11 -3 -20 -14 -20
-24 0 -10 -9 -23 -20 -29 -14 -8 -19 -17 -15 -29 3 -12 0 -21 -11 -25 -11 -4
-14 -13 -10 -30 3 -14 2 -28 -4 -31 -7 -4 -7 -12 0 -24 5 -10 7 -21 4 -24 -3
-3 -1 -13 5 -24 5 -10 12 -26 15 -36 4 -13 12 -17 26 -12 14 4 20 2 20 -8 0
-19 20 -26 45 -16 11 4 16 8 11 8 -5 1 -3 7 3 14 6 8 8 17 4 21 -4 3 2 12 12
20 19 14 13 36 -10 36 -8 0 -12 6 -9 14 7 18 -8 27 -26 16 -13 -8 -13 -13 -2
-31 12 -18 12 -23 0 -30 -24 -16 -60 -5 -52 16 3 7 1 16 -4 19 -11 6 -4 55 10
73 5 7 7 16 4 21 -3 6 1 15 9 22 8 7 15 18 15 25 0 7 18 29 40 49 22 20 40 41
40 47 0 6 7 8 16 5 10 -4 25 1 35 10 16 14 21 15 34 4 14 -11 20 -10 38 8 19
20 20 23 6 37 -8 9 -18 12 -22 9z"/>
<path d="M1813 1855 c-3 -9 -3 -18 0 -22 10 -10 37 6 37 22 0 20 -29 20 -37 0z"/>
<path d="M11210 1829 c0 -25 33 -22 38 4 2 12 -3 17 -17 17 -15 0 -21 -6 -21
-21z"/>
<path d="M10683 1824 c-4 -11 1 -22 12 -31 17 -11 22 -11 38 6 11 10 16 24 13
30 -11 17 -56 13 -63 -5z"/>
<path d="M1850 1799 c0 -14 5 -19 17 -17 26 5 29 38 4 38 -15 0 -21 -6 -21
-21z"/>
<path d="M11115 1790 c-9 -15 5 -32 21 -26 9 3 14 -1 14 -14 0 -29 19 -34 43
-13 12 11 30 23 40 26 24 9 22 37 -3 37 -14 0 -20 -7 -20 -21 0 -17 -3 -19
-13 -10 -8 6 -17 8 -21 3 -4 -4 -12 1 -17 11 -11 19 -34 23 -44 7z"/>
<path d="M2470 1759 c0 -10 -6 -19 -14 -19 -23 0 -31 -22 -13 -35 10 -7 17
-19 17 -28 0 -22 18 -31 35 -17 21 18 18 40 -5 40 -26 0 -25 14 2 39 16 16 25
18 35 10 9 -9 17 -8 28 1 22 19 11 27 -40 28 -38 0 -45 -3 -45 -19z"/>
<path d="M2763 1773 c-15 -5 -17 -29 -4 -37 4 -3 16 0 25 7 15 11 15 15 4 24
-7 6 -19 8 -25 6z"/>
<path d="M1892 1753 c2 -10 10 -18 18 -18 8 0 16 8 18 18 2 12 -3 17 -18 17
-15 0 -20 -5 -18 -17z"/>
<path d="M2693 1751 c-3 -11 -13 -21 -24 -24 -13 -3 -17 -11 -13 -21 8 -21 33
-20 41 2 4 9 15 23 25 30 20 15 16 32 -9 32 -8 0 -17 -9 -20 -19z"/>
<path d="M2564 1729 c-3 -6 -1 -16 4 -21 13 -13 45 8 36 23 -7 12 -31 11 -40
-2z"/>
<path d="M2797 1733 c-4 -3 -7 -15 -7 -25 0 -10 -6 -18 -14 -18 -23 0 -30 -20
-13 -38 13 -13 19 -13 31 -2 9 7 16 21 16 31 0 10 5 21 10 24 15 9 12 35 -3
35 -8 0 -17 -3 -20 -7z"/>
<path d="M1930 1716 c0 -8 5 -18 10 -21 13 -8 42 14 34 26 -9 15 -44 10 -44
-5z"/>
<path d="M1974 1679 c-9 -15 12 -33 30 -26 9 4 16 13 16 22 0 17 -35 21 -46 4z"/>
<path d="M2581 1681 c-14 -9 -9 -41 7 -41 15 0 34 28 27 40 -8 12 -16 13 -34
1z"/>
<path d="M9965 1680 c-4 -6 -1 -17 5 -26 14 -16 40 -2 40 22 0 16 -36 19 -45
4z"/>
<path d="M2663 1673 c-23 -9 -15 -35 10 -31 12 2 22 9 22 17 0 16 -14 22 -32
14z"/>
<path d="M2027 1626 c-14 -20 -14 -26 -2 -36 23 -19 76 25 59 51 -10 17 -42 9
-57 -15z"/>
<path d="M2556 1622 c-2 -4 -1 -14 4 -22 7 -11 11 -11 24 -1 9 8 16 17 16 22
0 11 -37 12 -44 1z"/>
<path d="M2681 1606 c-8 -10 -8 -16 3 -25 10 -9 16 -8 26 3 12 15 6 36 -9 36
-5 0 -14 -6 -20 -14z"/>
<path d="M10706 1585 c-20 -31 -20 -45 0 -45 18 0 53 38 54 58 0 21 -37 13
-54 -13z"/>
<path d="M2093 1584 c-3 -8 1 -22 8 -29 12 -12 17 -12 33 0 11 8 16 21 13 30
-8 20 -46 20 -54 -1z"/>
<path d="M2523 1565 c-3 -9 -3 -18 0 -22 10 -10 37 6 37 22 0 20 -29 20 -37 0z"/>
<path d="M2193 1562 c-16 -2 -23 -10 -23 -27 0 -32 16 -40 46 -24 40 21 23 59
-23 51z"/>
<path d="M2720 1549 c0 -25 33 -22 38 4 2 12 -3 17 -17 17 -15 0 -21 -6 -21
-21z"/>
<path d="M2598 1541 c-10 -10 -18 -24 -18 -32 0 -8 -5 -20 -12 -27 -8 -8 -8
-15 1 -25 9 -11 8 -17 -4 -27 -10 -8 -12 -17 -5 -29 5 -10 6 -27 3 -39 -3 -14
0 -24 10 -28 9 -3 13 -12 10 -20 -7 -18 25 -30 40 -15 9 10 8 15 -5 25 -14 10
-15 15 -5 25 9 10 8 15 -8 27 -15 11 -17 17 -7 23 9 5 11 17 6 34 -4 18 -2 27
6 27 8 0 10 9 6 24 -4 15 0 28 9 36 12 10 15 9 16 -6 1 -11 1 -26 0 -36 -2
-21 14 -31 39 -23 23 7 27 33 6 41 -8 3 -12 13 -9 25 4 13 0 19 -11 19 -9 0
-16 5 -16 10 0 16 -33 10 -52 -9z"/>
<path d="M2257 1522 c-9 -19 -7 -27 12 -45 21 -21 23 -21 35 -4 7 9 18 17 25
17 15 0 14 37 -1 46 -26 16 -60 10 -71 -14z"/>
<path d="M2451 1536 c-9 -11 -8 -18 5 -31 15 -15 19 -15 32 -1 17 17 10 46
-11 46 -8 0 -20 -6 -26 -14z"/>
<path d="M2369 1524 c-13 -16 -5 -42 16 -50 19 -8 47 21 43 44 -4 21 -43 25
-59 6z"/>
<path d="M10893 1424 c0 -44 -4 -68 -13 -74 -14 -9 -7 -40 10 -40 6 0 15 11
20 24 5 13 14 27 20 31 6 4 8 15 5 26 -4 11 -2 19 4 19 17 0 13 30 -4 36 -11
5 -13 10 -5 19 12 14 3 25 -21 25 -15 0 -17 -10 -16 -66z"/>
</g>
</svg>
